<?xml version="1.0" encoding="UTF-8" standalone="no"?>
<!DOCTYPE svg PUBLIC "-//W3C//DTD SVG 1.1//EN"
 "http://www.w3.org/Graphics/SVG/1.1/DTD/svg11.dtd">
<!-- Generated by graphviz version 2.44.1 (20200629.0846)
 -->
<!-- Title: G Pages: 1 -->
<svg width="926pt" height="980pt"
 viewBox="0.00 0.00 926.00 980.00" xmlns="http://www.w3.org/2000/svg" xmlns:xlink="http://www.w3.org/1999/xlink">
<g id="graph0" class="graph" transform="scale(1 1) rotate(0) translate(4 976)">
<title>G</title>
<polygon fill="white" stroke="transparent" points="-4,4 -4,-976 922,-976 922,4 -4,4"/>
<!-- NON_TERM0 -->
<g id="node1" class="node">
<title>NON_TERM0</title>
<ellipse fill="none" stroke="black" cx="459" cy="-954" rx="27" ry="18"/>
<text text-anchor="middle" x="459" y="-949.8" font-family="Times,serif" font-size="14.00">E</text>
</g>
<!-- NON_TERM1 -->
<g id="node2" class="node">
<title>NON_TERM1</title>
<ellipse fill="none" stroke="black" cx="423" cy="-882" rx="27" ry="18"/>
<text text-anchor="middle" x="423" y="-877.8" font-family="Times,serif" font-size="14.00">T</text>
</g>
<!-- NON_TERM0&#45;&gt;NON_TERM1 -->
<g id="edge1" class="edge">
<title>NON_TERM0&#45;&gt;NON_TERM1</title>
<path fill="none" stroke="black" d="M450.65,-936.76C446.29,-928.28 440.85,-917.71 435.96,-908.2"/>
<polygon fill="black" stroke="black" points="438.99,-906.44 431.3,-899.15 432.77,-909.64 438.99,-906.44"/>
</g>
<!-- NON_TERM43 -->
<g id="node72" class="node">
<title>NON_TERM43</title>
<ellipse fill="none" stroke="black" cx="495" cy="-882" rx="27" ry="18"/>
<text text-anchor="middle" x="495" y="-877.8" font-family="Times,serif" font-size="14.00">E&#39;</text>
</g>
<!-- NON_TERM0&#45;&gt;NON_TERM43 -->
<g id="edge71" class="edge">
<title>NON_TERM0&#45;&gt;NON_TERM43</title>
<path fill="none" stroke="black" d="M467.35,-936.76C471.71,-928.28 477.15,-917.71 482.04,-908.2"/>
<polygon fill="black" stroke="black" points="485.23,-909.64 486.7,-899.15 479.01,-906.44 485.23,-909.64"/>
</g>
<!-- NON_TERM2 -->
<g id="node3" class="node">
<title>NON_TERM2</title>
<ellipse fill="none" stroke="black" cx="279" cy="-810" rx="27" ry="18"/>
<text text-anchor="middle" x="279" y="-805.8" font-family="Times,serif" font-size="14.00">F&#39;</text>
</g>
<!-- NON_TERM1&#45;&gt;NON_TERM2 -->
<g id="edge2" class="edge">
<title>NON_TERM1&#45;&gt;NON_TERM2</title>
<path fill="none" stroke="black" d="M401.75,-870.67C377.4,-858.83 337.28,-839.33 309.57,-825.86"/>
<polygon fill="black" stroke="black" points="310.86,-822.6 300.33,-821.37 307.8,-828.89 310.86,-822.6"/>
</g>
<!-- NON_TERM15 -->
<g id="node24" class="node">
<title>NON_TERM15</title>
<ellipse fill="none" stroke="black" cx="423" cy="-810" rx="27" ry="18"/>
<text text-anchor="middle" x="423" y="-805.8" font-family="Times,serif" font-size="14.00">T&#39;</text>
</g>
<!-- NON_TERM1&#45;&gt;NON_TERM15 -->
<g id="edge23" class="edge">
<title>NON_TERM1&#45;&gt;NON_TERM15</title>
<path fill="none" stroke="black" d="M423,-863.7C423,-855.98 423,-846.71 423,-838.11"/>
<polygon fill="black" stroke="black" points="426.5,-838.1 423,-828.1 419.5,-838.1 426.5,-838.1"/>
</g>
<!-- NON_TERM3 -->
<g id="node4" class="node">
<title>NON_TERM3</title>
<ellipse fill="none" stroke="black" cx="279" cy="-738" rx="27" ry="18"/>
<text text-anchor="middle" x="279" y="-733.8" font-family="Times,serif" font-size="14.00">F</text>
</g>
<!-- NON_TERM2&#45;&gt;NON_TERM3 -->
<g id="edge3" class="edge">
<title>NON_TERM2&#45;&gt;NON_TERM3</title>
<path fill="none" stroke="black" d="M279,-791.7C279,-783.98 279,-774.71 279,-766.11"/>
<polygon fill="black" stroke="black" points="282.5,-766.1 279,-756.1 275.5,-766.1 282.5,-766.1"/>
</g>
<!-- TERM0 -->
<g id="node5" class="node">
<title>TERM0</title>
<ellipse fill="none" stroke="black" cx="171" cy="-666" rx="27" ry="18"/>
<text text-anchor="middle" x="171" y="-661.8" font-family="Times,serif" font-size="14.00">(</text>
</g>
<!-- NON_TERM3&#45;&gt;TERM0 -->
<g id="edge4" class="edge">
<title>NON_TERM3&#45;&gt;TERM0</title>
<path fill="none" stroke="black" d="M260.19,-724.81C243,-713.67 217.38,-697.06 198.01,-684.5"/>
<polygon fill="black" stroke="black" points="199.89,-681.56 189.6,-679.05 196.08,-687.43 199.89,-681.56"/>
</g>
<!-- NON_TERM4 -->
<g id="node6" class="node">
<title>NON_TERM4</title>
<ellipse fill="none" stroke="black" cx="243" cy="-666" rx="27" ry="18"/>
<text text-anchor="middle" x="243" y="-661.8" font-family="Times,serif" font-size="14.00">E</text>
</g>
<!-- NON_TERM3&#45;&gt;NON_TERM4 -->
<g id="edge5" class="edge">
<title>NON_TERM3&#45;&gt;NON_TERM4</title>
<path fill="none" stroke="black" d="M270.65,-720.76C266.29,-712.28 260.85,-701.71 255.96,-692.2"/>
<polygon fill="black" stroke="black" points="258.99,-690.44 251.3,-683.15 252.77,-693.64 258.99,-690.44"/>
</g>
<!-- TERM4 -->
<g id="node23" class="node">
<title>TERM4</title>
<ellipse fill="none" stroke="black" cx="315" cy="-666" rx="27" ry="18"/>
<text text-anchor="middle" x="315" y="-661.8" font-family="Times,serif" font-size="14.00">)</text>
</g>
<!-- NON_TERM3&#45;&gt;TERM4 -->
<g id="edge22" class="edge">
<title>NON_TERM3&#45;&gt;TERM4</title>
<path fill="none" stroke="black" d="M287.35,-720.76C291.71,-712.28 297.15,-701.71 302.04,-692.2"/>
<polygon fill="black" stroke="black" points="305.23,-693.64 306.7,-683.15 299.01,-690.44 305.23,-693.64"/>
</g>
<!-- NON_TERM5 -->
<g id="node7" class="node">
<title>NON_TERM5</title>
<ellipse fill="none" stroke="black" cx="99" cy="-594" rx="27" ry="18"/>
<text text-anchor="middle" x="99" y="-589.8" font-family="Times,serif" font-size="14.00">T</text>
</g>
<!-- NON_TERM4&#45;&gt;NON_TERM5 -->
<g id="edge6" class="edge">
<title>NON_TERM4&#45;&gt;NON_TERM5</title>
<path fill="none" stroke="black" d="M221.75,-654.67C197.4,-642.83 157.28,-623.33 129.57,-609.86"/>
<polygon fill="black" stroke="black" points="130.86,-606.6 120.33,-605.37 127.8,-612.89 130.86,-606.6"/>
</g>
<!-- NON_TERM9 -->
<g id="node13" class="node">
<title>NON_TERM9</title>
<ellipse fill="none" stroke="black" cx="243" cy="-594" rx="27" ry="18"/>
<text text-anchor="middle" x="243" y="-589.8" font-family="Times,serif" font-size="14.00">E&#39;</text>
</g>
<!-- NON_TERM4&#45;&gt;NON_TERM9 -->
<g id="edge12" class="edge">
<title>NON_TERM4&#45;&gt;NON_TERM9</title>
<path fill="none" stroke="black" d="M243,-647.7C243,-639.98 243,-630.71 243,-622.11"/>
<polygon fill="black" stroke="black" points="246.5,-622.1 243,-612.1 239.5,-622.1 246.5,-622.1"/>
</g>
<!-- NON_TERM6 -->
<g id="node8" class="node">
<title>NON_TERM6</title>
<ellipse fill="none" stroke="black" cx="27" cy="-522" rx="27" ry="18"/>
<text text-anchor="middle" x="27" y="-517.8" font-family="Times,serif" font-size="14.00">F&#39;</text>
</g>
<!-- NON_TERM5&#45;&gt;NON_TERM6 -->
<g id="edge7" class="edge">
<title>NON_TERM5&#45;&gt;NON_TERM6</title>
<path fill="none" stroke="black" d="M84.43,-578.83C74.25,-568.94 60.48,-555.55 48.97,-544.36"/>
<polygon fill="black" stroke="black" points="51.41,-541.85 41.8,-537.38 46.53,-546.87 51.41,-541.85"/>
</g>
<!-- NON_TERM8 -->
<g id="node11" class="node">
<title>NON_TERM8</title>
<ellipse fill="none" stroke="black" cx="99" cy="-522" rx="27" ry="18"/>
<text text-anchor="middle" x="99" y="-517.8" font-family="Times,serif" font-size="14.00">T&#39;</text>
</g>
<!-- NON_TERM5&#45;&gt;NON_TERM8 -->
<g id="edge10" class="edge">
<title>NON_TERM5&#45;&gt;NON_TERM8</title>
<path fill="none" stroke="black" d="M99,-575.7C99,-567.98 99,-558.71 99,-550.11"/>
<polygon fill="black" stroke="black" points="102.5,-550.1 99,-540.1 95.5,-550.1 102.5,-550.1"/>
</g>
<!-- NON_TERM7 -->
<g id="node9" class="node">
<title>NON_TERM7</title>
<ellipse fill="none" stroke="black" cx="27" cy="-450" rx="27" ry="18"/>
<text text-anchor="middle" x="27" y="-445.8" font-family="Times,serif" font-size="14.00">F</text>
</g>
<!-- NON_TERM6&#45;&gt;NON_TERM7 -->
<g id="edge8" class="edge">
<title>NON_TERM6&#45;&gt;NON_TERM7</title>
<path fill="none" stroke="black" d="M27,-503.7C27,-495.98 27,-486.71 27,-478.11"/>
<polygon fill="black" stroke="black" points="30.5,-478.1 27,-468.1 23.5,-478.1 30.5,-478.1"/>
</g>
<!-- TERM1 -->
<g id="node10" class="node">
<title>TERM1</title>
<ellipse fill="none" stroke="black" cx="27" cy="-378" rx="27" ry="18"/>
<text text-anchor="middle" x="27" y="-373.8" font-family="Times,serif" font-size="14.00">1</text>
</g>
<!-- NON_TERM7&#45;&gt;TERM1 -->
<g id="edge9" class="edge">
<title>NON_TERM7&#45;&gt;TERM1</title>
<path fill="none" stroke="black" d="M27,-431.7C27,-423.98 27,-414.71 27,-406.11"/>
<polygon fill="black" stroke="black" points="30.5,-406.1 27,-396.1 23.5,-406.1 30.5,-406.1"/>
</g>
<!-- EMPTY0 -->
<g id="node12" class="node">
<title>EMPTY0</title>
<ellipse fill="none" stroke="black" cx="99" cy="-450" rx="27" ry="18"/>
</g>
<!-- NON_TERM8&#45;&gt;EMPTY0 -->
<g id="edge11" class="edge">
<title>NON_TERM8&#45;&gt;EMPTY0</title>
<path fill="none" stroke="black" d="M99,-503.7C99,-495.98 99,-486.71 99,-478.11"/>
<polygon fill="black" stroke="black" points="102.5,-478.1 99,-468.1 95.5,-478.1 102.5,-478.1"/>
</g>
<!-- TERM2 -->
<g id="node14" class="node">
<title>TERM2</title>
<ellipse fill="none" stroke="black" cx="171" cy="-522" rx="27" ry="18"/>
<text text-anchor="middle" x="171" y="-517.8" font-family="Times,serif" font-size="14.00">+</text>
</g>
<!-- NON_TERM9&#45;&gt;TERM2 -->
<g id="edge13" class="edge">
<title>NON_TERM9&#45;&gt;TERM2</title>
<path fill="none" stroke="black" d="M228.43,-578.83C218.25,-568.94 204.48,-555.55 192.97,-544.36"/>
<polygon fill="black" stroke="black" points="195.41,-541.85 185.8,-537.38 190.53,-546.87 195.41,-541.85"/>
</g>
<!-- NON_TERM10 -->
<g id="node15" class="node">
<title>NON_TERM10</title>
<ellipse fill="none" stroke="black" cx="243" cy="-522" rx="27" ry="18"/>
<text text-anchor="middle" x="243" y="-517.8" font-family="Times,serif" font-size="14.00">T</text>
</g>
<!-- NON_TERM9&#45;&gt;NON_TERM10 -->
<g id="edge14" class="edge">
<title>NON_TERM9&#45;&gt;NON_TERM10</title>
<path fill="none" stroke="black" d="M243,-575.7C243,-567.98 243,-558.71 243,-550.11"/>
<polygon fill="black" stroke="black" points="246.5,-550.1 243,-540.1 239.5,-550.1 246.5,-550.1"/>
</g>
<!-- NON_TERM14 -->
<g id="node21" class="node">
<title>NON_TERM14</title>
<ellipse fill="none" stroke="black" cx="315" cy="-522" rx="27" ry="18"/>
<text text-anchor="middle" x="315" y="-517.8" font-family="Times,serif" font-size="14.00">E&#39;</text>
</g>
<!-- NON_TERM9&#45;&gt;NON_TERM14 -->
<g id="edge20" class="edge">
<title>NON_TERM9&#45;&gt;NON_TERM14</title>
<path fill="none" stroke="black" d="M257.57,-578.83C267.75,-568.94 281.52,-555.55 293.03,-544.36"/>
<polygon fill="black" stroke="black" points="295.47,-546.87 300.2,-537.38 290.59,-541.85 295.47,-546.87"/>
</g>
<!-- NON_TERM11 -->
<g id="node16" class="node">
<title>NON_TERM11</title>
<ellipse fill="none" stroke="black" cx="171" cy="-450" rx="27" ry="18"/>
<text text-anchor="middle" x="171" y="-445.8" font-family="Times,serif" font-size="14.00">F&#39;</text>
</g>
<!-- NON_TERM10&#45;&gt;NON_TERM11 -->
<g id="edge15" class="edge">
<title>NON_TERM10&#45;&gt;NON_TERM11</title>
<path fill="none" stroke="black" d="M228.43,-506.83C218.25,-496.94 204.48,-483.55 192.97,-472.36"/>
<polygon fill="black" stroke="black" points="195.41,-469.85 185.8,-465.38 190.53,-474.87 195.41,-469.85"/>
</g>
<!-- NON_TERM13 -->
<g id="node19" class="node">
<title>NON_TERM13</title>
<ellipse fill="none" stroke="black" cx="243" cy="-450" rx="27" ry="18"/>
<text text-anchor="middle" x="243" y="-445.8" font-family="Times,serif" font-size="14.00">T&#39;</text>
</g>
<!-- NON_TERM10&#45;&gt;NON_TERM13 -->
<g id="edge18" class="edge">
<title>NON_TERM10&#45;&gt;NON_TERM13</title>
<path fill="none" stroke="black" d="M243,-503.7C243,-495.98 243,-486.71 243,-478.11"/>
<polygon fill="black" stroke="black" points="246.5,-478.1 243,-468.1 239.5,-478.1 246.5,-478.1"/>
</g>
<!-- NON_TERM12 -->
<g id="node17" class="node">
<title>NON_TERM12</title>
<ellipse fill="none" stroke="black" cx="171" cy="-378" rx="27" ry="18"/>
<text text-anchor="middle" x="171" y="-373.8" font-family="Times,serif" font-size="14.00">F</text>
</g>
<!-- NON_TERM11&#45;&gt;NON_TERM12 -->
<g id="edge16" class="edge">
<title>NON_TERM11&#45;&gt;NON_TERM12</title>
<path fill="none" stroke="black" d="M171,-431.7C171,-423.98 171,-414.71 171,-406.11"/>
<polygon fill="black" stroke="black" points="174.5,-406.1 171,-396.1 167.5,-406.1 174.5,-406.1"/>
</g>
<!-- TERM3 -->
<g id="node18" class="node">
<title>TERM3</title>
<ellipse fill="none" stroke="black" cx="171" cy="-306" rx="27" ry="18"/>
<text text-anchor="middle" x="171" y="-301.8" font-family="Times,serif" font-size="14.00">2</text>
</g>
<!-- NON_TERM12&#45;&gt;TERM3 -->
<g id="edge17" class="edge">
<title>NON_TERM12&#45;&gt;TERM3</title>
<path fill="none" stroke="black" d="M171,-359.7C171,-351.98 171,-342.71 171,-334.11"/>
<polygon fill="black" stroke="black" points="174.5,-334.1 171,-324.1 167.5,-334.1 174.5,-334.1"/>
</g>
<!-- EMPTY1 -->
<g id="node20" class="node">
<title>EMPTY1</title>
<ellipse fill="none" stroke="black" cx="243" cy="-378" rx="27" ry="18"/>
</g>
<!-- NON_TERM13&#45;&gt;EMPTY1 -->
<g id="edge19" class="edge">
<title>NON_TERM13&#45;&gt;EMPTY1</title>
<path fill="none" stroke="black" d="M243,-431.7C243,-423.98 243,-414.71 243,-406.11"/>
<polygon fill="black" stroke="black" points="246.5,-406.1 243,-396.1 239.5,-406.1 246.5,-406.1"/>
</g>
<!-- EMPTY2 -->
<g id="node22" class="node">
<title>EMPTY2</title>
<ellipse fill="none" stroke="black" cx="315" cy="-450" rx="27" ry="18"/>
</g>
<!-- NON_TERM14&#45;&gt;EMPTY2 -->
<g id="edge21" class="edge">
<title>NON_TERM14&#45;&gt;EMPTY2</title>
<path fill="none" stroke="black" d="M315,-503.7C315,-495.98 315,-486.71 315,-478.11"/>
<polygon fill="black" stroke="black" points="318.5,-478.1 315,-468.1 311.5,-478.1 318.5,-478.1"/>
</g>
<!-- TERM5 -->
<g id="node25" class="node">
<title>TERM5</title>
<ellipse fill="none" stroke="black" cx="387" cy="-738" rx="27" ry="18"/>
<text text-anchor="middle" x="387" y="-733.8" font-family="Times,serif" font-size="14.00">*</text>
</g>
<!-- NON_TERM15&#45;&gt;TERM5 -->
<g id="edge24" class="edge">
<title>NON_TERM15&#45;&gt;TERM5</title>
<path fill="none" stroke="black" d="M414.65,-792.76C410.29,-784.28 404.85,-773.71 399.96,-764.2"/>
<polygon fill="black" stroke="black" points="402.99,-762.44 395.3,-755.15 396.77,-765.64 402.99,-762.44"/>
</g>
<!-- NON_TERM16 -->
<g id="node26" class="node">
<title>NON_TERM16</title>
<ellipse fill="none" stroke="black" cx="459" cy="-738" rx="27" ry="18"/>
<text text-anchor="middle" x="459" y="-733.8" font-family="Times,serif" font-size="14.00">F</text>
</g>
<!-- NON_TERM15&#45;&gt;NON_TERM16 -->
<g id="edge25" class="edge">
<title>NON_TERM15&#45;&gt;NON_TERM16</title>
<path fill="none" stroke="black" d="M431.35,-792.76C435.71,-784.28 441.15,-773.71 446.04,-764.2"/>
<polygon fill="black" stroke="black" points="449.23,-765.64 450.7,-755.15 443.01,-762.44 449.23,-765.64"/>
</g>
<!-- NON_TERM42 -->
<g id="node70" class="node">
<title>NON_TERM42</title>
<ellipse fill="none" stroke="black" cx="567" cy="-738" rx="27" ry="18"/>
<text text-anchor="middle" x="567" y="-733.8" font-family="Times,serif" font-size="14.00">T&#39;</text>
</g>
<!-- NON_TERM15&#45;&gt;NON_TERM42 -->
<g id="edge69" class="edge">
<title>NON_TERM15&#45;&gt;NON_TERM42</title>
<path fill="none" stroke="black" d="M444.25,-798.67C468.6,-786.83 508.72,-767.33 536.43,-753.86"/>
<polygon fill="black" stroke="black" points="538.2,-756.89 545.67,-749.37 535.14,-750.6 538.2,-756.89"/>
</g>
<!-- TERM6 -->
<g id="node27" class="node">
<title>TERM6</title>
<ellipse fill="none" stroke="black" cx="387" cy="-666" rx="27" ry="18"/>
<text text-anchor="middle" x="387" y="-661.8" font-family="Times,serif" font-size="14.00">sin(</text>
</g>
<!-- NON_TERM16&#45;&gt;TERM6 -->
<g id="edge26" class="edge">
<title>NON_TERM16&#45;&gt;TERM6</title>
<path fill="none" stroke="black" d="M444.43,-722.83C434.25,-712.94 420.48,-699.55 408.97,-688.36"/>
<polygon fill="black" stroke="black" points="411.41,-685.85 401.8,-681.38 406.53,-690.87 411.41,-685.85"/>
</g>
<!-- NON_TERM17 -->
<g id="node28" class="node">
<title>NON_TERM17</title>
<ellipse fill="none" stroke="black" cx="459" cy="-666" rx="27" ry="18"/>
<text text-anchor="middle" x="459" y="-661.8" font-family="Times,serif" font-size="14.00">E</text>
</g>
<!-- NON_TERM16&#45;&gt;NON_TERM17 -->
<g id="edge27" class="edge">
<title>NON_TERM16&#45;&gt;NON_TERM17</title>
<path fill="none" stroke="black" d="M459,-719.7C459,-711.98 459,-702.71 459,-694.11"/>
<polygon fill="black" stroke="black" points="462.5,-694.1 459,-684.1 455.5,-694.1 462.5,-694.1"/>
</g>
<!-- TERM17 -->
<g id="node69" class="node">
<title>TERM17</title>
<ellipse fill="none" stroke="black" cx="531" cy="-666" rx="27" ry="18"/>
<text text-anchor="middle" x="531" y="-661.8" font-family="Times,serif" font-size="14.00">)</text>
</g>
<!-- NON_TERM16&#45;&gt;TERM17 -->
<g id="edge68" class="edge">
<title>NON_TERM16&#45;&gt;TERM17</title>
<path fill="none" stroke="black" d="M473.57,-722.83C483.75,-712.94 497.52,-699.55 509.03,-688.36"/>
<polygon fill="black" stroke="black" points="511.47,-690.87 516.2,-681.38 506.59,-685.85 511.47,-690.87"/>
</g>
<!-- NON_TERM18 -->
<g id="node29" class="node">
<title>NON_TERM18</title>
<ellipse fill="none" stroke="black" cx="459" cy="-594" rx="27" ry="18"/>
<text text-anchor="middle" x="459" y="-589.8" font-family="Times,serif" font-size="14.00">T</text>
</g>
<!-- NON_TERM17&#45;&gt;NON_TERM18 -->
<g id="edge28" class="edge">
<title>NON_TERM17&#45;&gt;NON_TERM18</title>
<path fill="none" stroke="black" d="M459,-647.7C459,-639.98 459,-630.71 459,-622.11"/>
<polygon fill="black" stroke="black" points="462.5,-622.1 459,-612.1 455.5,-622.1 462.5,-622.1"/>
</g>
<!-- NON_TERM36 -->
<g id="node59" class="node">
<title>NON_TERM36</title>
<ellipse fill="none" stroke="black" cx="729" cy="-594" rx="27" ry="18"/>
<text text-anchor="middle" x="729" y="-589.8" font-family="Times,serif" font-size="14.00">E&#39;</text>
</g>
<!-- NON_TERM17&#45;&gt;NON_TERM36 -->
<g id="edge58" class="edge">
<title>NON_TERM17&#45;&gt;NON_TERM36</title>
<path fill="none" stroke="black" d="M479.62,-654.32C484.57,-652.02 489.9,-649.76 495,-648 563.28,-624.46 646.41,-608.5 692.95,-600.64"/>
<polygon fill="black" stroke="black" points="693.57,-604.09 702.86,-599 692.43,-597.18 693.57,-604.09"/>
</g>
<!-- NON_TERM19 -->
<g id="node30" class="node">
<title>NON_TERM19</title>
<ellipse fill="none" stroke="black" cx="459" cy="-522" rx="27" ry="18"/>
<text text-anchor="middle" x="459" y="-517.8" font-family="Times,serif" font-size="14.00">F&#39;</text>
</g>
<!-- NON_TERM18&#45;&gt;NON_TERM19 -->
<g id="edge29" class="edge">
<title>NON_TERM18&#45;&gt;NON_TERM19</title>
<path fill="none" stroke="black" d="M459,-575.7C459,-567.98 459,-558.71 459,-550.11"/>
<polygon fill="black" stroke="black" points="462.5,-550.1 459,-540.1 455.5,-550.1 462.5,-550.1"/>
</g>
<!-- NON_TERM22 -->
<g id="node35" class="node">
<title>NON_TERM22</title>
<ellipse fill="none" stroke="black" cx="585" cy="-522" rx="27" ry="18"/>
<text text-anchor="middle" x="585" y="-517.8" font-family="Times,serif" font-size="14.00">T&#39;</text>
</g>
<!-- NON_TERM18&#45;&gt;NON_TERM22 -->
<g id="edge34" class="edge">
<title>NON_TERM18&#45;&gt;NON_TERM22</title>
<path fill="none" stroke="black" d="M479.24,-581.75C500,-570.22 532.48,-552.18 555.98,-539.12"/>
<polygon fill="black" stroke="black" points="557.76,-542.13 564.81,-534.22 554.36,-536.02 557.76,-542.13"/>
</g>
<!-- TERM7 -->
<g id="node31" class="node">
<title>TERM7</title>
<ellipse fill="none" stroke="black" cx="387" cy="-450" rx="27" ry="18"/>
<text text-anchor="middle" x="387" y="-445.8" font-family="Times,serif" font-size="14.00">&#45;</text>
</g>
<!-- NON_TERM19&#45;&gt;TERM7 -->
<g id="edge30" class="edge">
<title>NON_TERM19&#45;&gt;TERM7</title>
<path fill="none" stroke="black" d="M444.43,-506.83C434.25,-496.94 420.48,-483.55 408.97,-472.36"/>
<polygon fill="black" stroke="black" points="411.41,-469.85 401.8,-465.38 406.53,-474.87 411.41,-469.85"/>
</g>
<!-- NON_TERM20 -->
<g id="node32" class="node">
<title>NON_TERM20</title>
<ellipse fill="none" stroke="black" cx="459" cy="-450" rx="27" ry="18"/>
<text text-anchor="middle" x="459" y="-445.8" font-family="Times,serif" font-size="14.00">F&#39;</text>
</g>
<!-- NON_TERM19&#45;&gt;NON_TERM20 -->
<g id="edge31" class="edge">
<title>NON_TERM19&#45;&gt;NON_TERM20</title>
<path fill="none" stroke="black" d="M459,-503.7C459,-495.98 459,-486.71 459,-478.11"/>
<polygon fill="black" stroke="black" points="462.5,-478.1 459,-468.1 455.5,-478.1 462.5,-478.1"/>
</g>
<!-- NON_TERM21 -->
<g id="node33" class="node">
<title>NON_TERM21</title>
<ellipse fill="none" stroke="black" cx="387" cy="-378" rx="27" ry="18"/>
<text text-anchor="middle" x="387" y="-373.8" font-family="Times,serif" font-size="14.00">F</text>
</g>
<!-- NON_TERM20&#45;&gt;NON_TERM21 -->
<g id="edge32" class="edge">
<title>NON_TERM20&#45;&gt;NON_TERM21</title>
<path fill="none" stroke="black" d="M444.43,-434.83C434.25,-424.94 420.48,-411.55 408.97,-400.36"/>
<polygon fill="black" stroke="black" points="411.41,-397.85 401.8,-393.38 406.53,-402.87 411.41,-397.85"/>
</g>
<!-- TERM8 -->
<g id="node34" class="node">
<title>TERM8</title>
<ellipse fill="none" stroke="black" cx="387" cy="-306" rx="27" ry="18"/>
<text text-anchor="middle" x="387" y="-301.8" font-family="Times,serif" font-size="14.00">3</text>
</g>
<!-- NON_TERM21&#45;&gt;TERM8 -->
<g id="edge33" class="edge">
<title>NON_TERM21&#45;&gt;TERM8</title>
<path fill="none" stroke="black" d="M387,-359.7C387,-351.98 387,-342.71 387,-334.11"/>
<polygon fill="black" stroke="black" points="390.5,-334.1 387,-324.1 383.5,-334.1 390.5,-334.1"/>
</g>
<!-- TERM9 -->
<g id="node36" class="node">
<title>TERM9</title>
<ellipse fill="none" stroke="black" cx="531" cy="-450" rx="27" ry="18"/>
<text text-anchor="middle" x="531" y="-445.8" font-family="Times,serif" font-size="14.00">*</text>
</g>
<!-- NON_TERM22&#45;&gt;TERM9 -->
<g id="edge35" class="edge">
<title>NON_TERM22&#45;&gt;TERM9</title>
<path fill="none" stroke="black" d="M573.02,-505.46C566.02,-496.4 557.06,-484.79 549.21,-474.61"/>
<polygon fill="black" stroke="black" points="551.83,-472.27 542.95,-466.49 546.29,-476.55 551.83,-472.27"/>
</g>
<!-- NON_TERM23 -->
<g id="node37" class="node">
<title>NON_TERM23</title>
<ellipse fill="none" stroke="black" cx="603" cy="-450" rx="27" ry="18"/>
<text text-anchor="middle" x="603" y="-445.8" font-family="Times,serif" font-size="14.00">F</text>
</g>
<!-- NON_TERM22&#45;&gt;NON_TERM23 -->
<g id="edge36" class="edge">
<title>NON_TERM22&#45;&gt;NON_TERM23</title>
<path fill="none" stroke="black" d="M589.36,-504.05C591.39,-496.14 593.86,-486.54 596.14,-477.69"/>
<polygon fill="black" stroke="black" points="599.58,-478.35 598.68,-467.79 592.8,-476.6 599.58,-478.35"/>
</g>
<!-- NON_TERM35 -->
<g id="node57" class="node">
<title>NON_TERM35</title>
<ellipse fill="none" stroke="black" cx="675" cy="-450" rx="27" ry="18"/>
<text text-anchor="middle" x="675" y="-445.8" font-family="Times,serif" font-size="14.00">T&#39;</text>
</g>
<!-- NON_TERM22&#45;&gt;NON_TERM35 -->
<g id="edge56" class="edge">
<title>NON_TERM22&#45;&gt;NON_TERM35</title>
<path fill="none" stroke="black" d="M601.93,-507.83C615.5,-497.27 634.76,-482.3 650.09,-470.37"/>
<polygon fill="black" stroke="black" points="652.4,-473.01 658.15,-464.11 648.11,-467.48 652.4,-473.01"/>
</g>
<!-- TERM10 -->
<g id="node38" class="node">
<title>TERM10</title>
<ellipse fill="none" stroke="black" cx="459" cy="-378" rx="27" ry="18"/>
<text text-anchor="middle" x="459" y="-373.8" font-family="Times,serif" font-size="14.00">(</text>
</g>
<!-- NON_TERM23&#45;&gt;TERM10 -->
<g id="edge37" class="edge">
<title>NON_TERM23&#45;&gt;TERM10</title>
<path fill="none" stroke="black" d="M581.75,-438.67C557.4,-426.83 517.28,-407.33 489.57,-393.86"/>
<polygon fill="black" stroke="black" points="490.86,-390.6 480.33,-389.37 487.8,-396.89 490.86,-390.6"/>
</g>
<!-- NON_TERM24 -->
<g id="node39" class="node">
<title>NON_TERM24</title>
<ellipse fill="none" stroke="black" cx="531" cy="-378" rx="27" ry="18"/>
<text text-anchor="middle" x="531" y="-373.8" font-family="Times,serif" font-size="14.00">E</text>
</g>
<!-- NON_TERM23&#45;&gt;NON_TERM24 -->
<g id="edge38" class="edge">
<title>NON_TERM23&#45;&gt;NON_TERM24</title>
<path fill="none" stroke="black" d="M588.43,-434.83C578.25,-424.94 564.48,-411.55 552.97,-400.36"/>
<polygon fill="black" stroke="black" points="555.41,-397.85 545.8,-393.38 550.53,-402.87 555.41,-397.85"/>
</g>
<!-- TERM14 -->
<g id="node56" class="node">
<title>TERM14</title>
<ellipse fill="none" stroke="black" cx="603" cy="-378" rx="27" ry="18"/>
<text text-anchor="middle" x="603" y="-373.8" font-family="Times,serif" font-size="14.00">)</text>
</g>
<!-- NON_TERM23&#45;&gt;TERM14 -->
<g id="edge55" class="edge">
<title>NON_TERM23&#45;&gt;TERM14</title>
<path fill="none" stroke="black" d="M603,-431.7C603,-423.98 603,-414.71 603,-406.11"/>
<polygon fill="black" stroke="black" points="606.5,-406.1 603,-396.1 599.5,-406.1 606.5,-406.1"/>
</g>
<!-- NON_TERM25 -->
<g id="node40" class="node">
<title>NON_TERM25</title>
<ellipse fill="none" stroke="black" cx="495" cy="-306" rx="27" ry="18"/>
<text text-anchor="middle" x="495" y="-301.8" font-family="Times,serif" font-size="14.00">T</text>
</g>
<!-- NON_TERM24&#45;&gt;NON_TERM25 -->
<g id="edge39" class="edge">
<title>NON_TERM24&#45;&gt;NON_TERM25</title>
<path fill="none" stroke="black" d="M522.65,-360.76C518.29,-352.28 512.85,-341.71 507.96,-332.2"/>
<polygon fill="black" stroke="black" points="510.99,-330.44 503.3,-323.15 504.77,-333.64 510.99,-330.44"/>
</g>
<!-- NON_TERM29 -->
<g id="node46" class="node">
<title>NON_TERM29</title>
<ellipse fill="none" stroke="black" cx="603" cy="-306" rx="27" ry="18"/>
<text text-anchor="middle" x="603" y="-301.8" font-family="Times,serif" font-size="14.00">E&#39;</text>
</g>
<!-- NON_TERM24&#45;&gt;NON_TERM29 -->
<g id="edge45" class="edge">
<title>NON_TERM24&#45;&gt;NON_TERM29</title>
<path fill="none" stroke="black" d="M545.57,-362.83C555.75,-352.94 569.52,-339.55 581.03,-328.36"/>
<polygon fill="black" stroke="black" points="583.47,-330.87 588.2,-321.38 578.59,-325.85 583.47,-330.87"/>
</g>
<!-- NON_TERM26 -->
<g id="node41" class="node">
<title>NON_TERM26</title>
<ellipse fill="none" stroke="black" cx="423" cy="-234" rx="27" ry="18"/>
<text text-anchor="middle" x="423" y="-229.8" font-family="Times,serif" font-size="14.00">F&#39;</text>
</g>
<!-- NON_TERM25&#45;&gt;NON_TERM26 -->
<g id="edge40" class="edge">
<title>NON_TERM25&#45;&gt;NON_TERM26</title>
<path fill="none" stroke="black" d="M480.43,-290.83C470.25,-280.94 456.48,-267.55 444.97,-256.36"/>
<polygon fill="black" stroke="black" points="447.41,-253.85 437.8,-249.38 442.53,-258.87 447.41,-253.85"/>
</g>
<!-- NON_TERM28 -->
<g id="node44" class="node">
<title>NON_TERM28</title>
<ellipse fill="none" stroke="black" cx="495" cy="-234" rx="27" ry="18"/>
<text text-anchor="middle" x="495" y="-229.8" font-family="Times,serif" font-size="14.00">T&#39;</text>
</g>
<!-- NON_TERM25&#45;&gt;NON_TERM28 -->
<g id="edge43" class="edge">
<title>NON_TERM25&#45;&gt;NON_TERM28</title>
<path fill="none" stroke="black" d="M495,-287.7C495,-279.98 495,-270.71 495,-262.11"/>
<polygon fill="black" stroke="black" points="498.5,-262.1 495,-252.1 491.5,-262.1 498.5,-262.1"/>
</g>
<!-- NON_TERM27 -->
<g id="node42" class="node">
<title>NON_TERM27</title>
<ellipse fill="none" stroke="black" cx="423" cy="-162" rx="27" ry="18"/>
<text text-anchor="middle" x="423" y="-157.8" font-family="Times,serif" font-size="14.00">F</text>
</g>
<!-- NON_TERM26&#45;&gt;NON_TERM27 -->
<g id="edge41" class="edge">
<title>NON_TERM26&#45;&gt;NON_TERM27</title>
<path fill="none" stroke="black" d="M423,-215.7C423,-207.98 423,-198.71 423,-190.11"/>
<polygon fill="black" stroke="black" points="426.5,-190.1 423,-180.1 419.5,-190.1 426.5,-190.1"/>
</g>
<!-- TERM11 -->
<g id="node43" class="node">
<title>TERM11</title>
<ellipse fill="none" stroke="black" cx="423" cy="-90" rx="27" ry="18"/>
<text text-anchor="middle" x="423" y="-85.8" font-family="Times,serif" font-size="14.00">7</text>
</g>
<!-- NON_TERM27&#45;&gt;TERM11 -->
<g id="edge42" class="edge">
<title>NON_TERM27&#45;&gt;TERM11</title>
<path fill="none" stroke="black" d="M423,-143.7C423,-135.98 423,-126.71 423,-118.11"/>
<polygon fill="black" stroke="black" points="426.5,-118.1 423,-108.1 419.5,-118.1 426.5,-118.1"/>
</g>
<!-- EMPTY3 -->
<g id="node45" class="node">
<title>EMPTY3</title>
<ellipse fill="none" stroke="black" cx="495" cy="-162" rx="27" ry="18"/>
</g>
<!-- NON_TERM28&#45;&gt;EMPTY3 -->
<g id="edge44" class="edge">
<title>NON_TERM28&#45;&gt;EMPTY3</title>
<path fill="none" stroke="black" d="M495,-215.7C495,-207.98 495,-198.71 495,-190.11"/>
<polygon fill="black" stroke="black" points="498.5,-190.1 495,-180.1 491.5,-190.1 498.5,-190.1"/>
</g>
<!-- TERM12 -->
<g id="node47" class="node">
<title>TERM12</title>
<ellipse fill="none" stroke="black" cx="567" cy="-234" rx="27" ry="18"/>
<text text-anchor="middle" x="567" y="-229.8" font-family="Times,serif" font-size="14.00">&#45;</text>
</g>
<!-- NON_TERM29&#45;&gt;TERM12 -->
<g id="edge46" class="edge">
<title>NON_TERM29&#45;&gt;TERM12</title>
<path fill="none" stroke="black" d="M594.65,-288.76C590.29,-280.28 584.85,-269.71 579.96,-260.2"/>
<polygon fill="black" stroke="black" points="582.99,-258.44 575.3,-251.15 576.77,-261.64 582.99,-258.44"/>
</g>
<!-- NON_TERM30 -->
<g id="node48" class="node">
<title>NON_TERM30</title>
<ellipse fill="none" stroke="black" cx="639" cy="-234" rx="27" ry="18"/>
<text text-anchor="middle" x="639" y="-229.8" font-family="Times,serif" font-size="14.00">T</text>
</g>
<!-- NON_TERM29&#45;&gt;NON_TERM30 -->
<g id="edge47" class="edge">
<title>NON_TERM29&#45;&gt;NON_TERM30</title>
<path fill="none" stroke="black" d="M611.35,-288.76C615.71,-280.28 621.15,-269.71 626.04,-260.2"/>
<polygon fill="black" stroke="black" points="629.23,-261.64 630.7,-251.15 623.01,-258.44 629.23,-261.64"/>
</g>
<!-- NON_TERM34 -->
<g id="node54" class="node">
<title>NON_TERM34</title>
<ellipse fill="none" stroke="black" cx="711" cy="-234" rx="27" ry="18"/>
<text text-anchor="middle" x="711" y="-229.8" font-family="Times,serif" font-size="14.00">E&#39;</text>
</g>
<!-- NON_TERM29&#45;&gt;NON_TERM34 -->
<g id="edge53" class="edge">
<title>NON_TERM29&#45;&gt;NON_TERM34</title>
<path fill="none" stroke="black" d="M621.81,-292.81C639,-281.67 664.62,-265.06 683.99,-252.5"/>
<polygon fill="black" stroke="black" points="685.92,-255.43 692.4,-247.05 682.11,-249.56 685.92,-255.43"/>
</g>
<!-- NON_TERM31 -->
<g id="node49" class="node">
<title>NON_TERM31</title>
<ellipse fill="none" stroke="black" cx="567" cy="-162" rx="27" ry="18"/>
<text text-anchor="middle" x="567" y="-157.8" font-family="Times,serif" font-size="14.00">F&#39;</text>
</g>
<!-- NON_TERM30&#45;&gt;NON_TERM31 -->
<g id="edge48" class="edge">
<title>NON_TERM30&#45;&gt;NON_TERM31</title>
<path fill="none" stroke="black" d="M624.43,-218.83C614.25,-208.94 600.48,-195.55 588.97,-184.36"/>
<polygon fill="black" stroke="black" points="591.41,-181.85 581.8,-177.38 586.53,-186.87 591.41,-181.85"/>
</g>
<!-- NON_TERM33 -->
<g id="node52" class="node">
<title>NON_TERM33</title>
<ellipse fill="none" stroke="black" cx="639" cy="-162" rx="27" ry="18"/>
<text text-anchor="middle" x="639" y="-157.8" font-family="Times,serif" font-size="14.00">T&#39;</text>
</g>
<!-- NON_TERM30&#45;&gt;NON_TERM33 -->
<g id="edge51" class="edge">
<title>NON_TERM30&#45;&gt;NON_TERM33</title>
<path fill="none" stroke="black" d="M639,-215.7C639,-207.98 639,-198.71 639,-190.11"/>
<polygon fill="black" stroke="black" points="642.5,-190.1 639,-180.1 635.5,-190.1 642.5,-190.1"/>
</g>
<!-- NON_TERM32 -->
<g id="node50" class="node">
<title>NON_TERM32</title>
<ellipse fill="none" stroke="black" cx="567" cy="-90" rx="27" ry="18"/>
<text text-anchor="middle" x="567" y="-85.8" font-family="Times,serif" font-size="14.00">F</text>
</g>
<!-- NON_TERM31&#45;&gt;NON_TERM32 -->
<g id="edge49" class="edge">
<title>NON_TERM31&#45;&gt;NON_TERM32</title>
<path fill="none" stroke="black" d="M567,-143.7C567,-135.98 567,-126.71 567,-118.11"/>
<polygon fill="black" stroke="black" points="570.5,-118.1 567,-108.1 563.5,-118.1 570.5,-118.1"/>
</g>
<!-- TERM13 -->
<g id="node51" class="node">
<title>TERM13</title>
<ellipse fill="none" stroke="black" cx="567" cy="-18" rx="27" ry="18"/>
<text text-anchor="middle" x="567" y="-13.8" font-family="Times,serif" font-size="14.00">4</text>
</g>
<!-- NON_TERM32&#45;&gt;TERM13 -->
<g id="edge50" class="edge">
<title>NON_TERM32&#45;&gt;TERM13</title>
<path fill="none" stroke="black" d="M567,-71.7C567,-63.98 567,-54.71 567,-46.11"/>
<polygon fill="black" stroke="black" points="570.5,-46.1 567,-36.1 563.5,-46.1 570.5,-46.1"/>
</g>
<!-- EMPTY4 -->
<g id="node53" class="node">
<title>EMPTY4</title>
<ellipse fill="none" stroke="black" cx="639" cy="-90" rx="27" ry="18"/>
</g>
<!-- NON_TERM33&#45;&gt;EMPTY4 -->
<g id="edge52" class="edge">
<title>NON_TERM33&#45;&gt;EMPTY4</title>
<path fill="none" stroke="black" d="M639,-143.7C639,-135.98 639,-126.71 639,-118.11"/>
<polygon fill="black" stroke="black" points="642.5,-118.1 639,-108.1 635.5,-118.1 642.5,-118.1"/>
</g>
<!-- EMPTY5 -->
<g id="node55" class="node">
<title>EMPTY5</title>
<ellipse fill="none" stroke="black" cx="711" cy="-162" rx="27" ry="18"/>
</g>
<!-- NON_TERM34&#45;&gt;EMPTY5 -->
<g id="edge54" class="edge">
<title>NON_TERM34&#45;&gt;EMPTY5</title>
<path fill="none" stroke="black" d="M711,-215.7C711,-207.98 711,-198.71 711,-190.11"/>
<polygon fill="black" stroke="black" points="714.5,-190.1 711,-180.1 707.5,-190.1 714.5,-190.1"/>
</g>
<!-- EMPTY6 -->
<g id="node58" class="node">
<title>EMPTY6</title>
<ellipse fill="none" stroke="black" cx="675" cy="-378" rx="27" ry="18"/>
</g>
<!-- NON_TERM35&#45;&gt;EMPTY6 -->
<g id="edge57" class="edge">
<title>NON_TERM35&#45;&gt;EMPTY6</title>
<path fill="none" stroke="black" d="M675,-431.7C675,-423.98 675,-414.71 675,-406.11"/>
<polygon fill="black" stroke="black" points="678.5,-406.1 675,-396.1 671.5,-406.1 678.5,-406.1"/>
</g>
<!-- TERM15 -->
<g id="node60" class="node">
<title>TERM15</title>
<ellipse fill="none" stroke="black" cx="693" cy="-522" rx="27" ry="18"/>
<text text-anchor="middle" x="693" y="-517.8" font-family="Times,serif" font-size="14.00">+</text>
</g>
<!-- NON_TERM36&#45;&gt;TERM15 -->
<g id="edge59" class="edge">
<title>NON_TERM36&#45;&gt;TERM15</title>
<path fill="none" stroke="black" d="M720.65,-576.76C716.29,-568.28 710.85,-557.71 705.96,-548.2"/>
<polygon fill="black" stroke="black" points="708.99,-546.44 701.3,-539.15 702.77,-549.64 708.99,-546.44"/>
</g>
<!-- NON_TERM37 -->
<g id="node61" class="node">
<title>NON_TERM37</title>
<ellipse fill="none" stroke="black" cx="765" cy="-522" rx="27" ry="18"/>
<text text-anchor="middle" x="765" y="-517.8" font-family="Times,serif" font-size="14.00">T</text>
</g>
<!-- NON_TERM36&#45;&gt;NON_TERM37 -->
<g id="edge60" class="edge">
<title>NON_TERM36&#45;&gt;NON_TERM37</title>
<path fill="none" stroke="black" d="M737.35,-576.76C741.71,-568.28 747.15,-557.71 752.04,-548.2"/>
<polygon fill="black" stroke="black" points="755.23,-549.64 756.7,-539.15 749.01,-546.44 755.23,-549.64"/>
</g>
<!-- NON_TERM41 -->
<g id="node67" class="node">
<title>NON_TERM41</title>
<ellipse fill="none" stroke="black" cx="864" cy="-522" rx="27" ry="18"/>
<text text-anchor="middle" x="864" y="-517.8" font-family="Times,serif" font-size="14.00">E&#39;</text>
</g>
<!-- NON_TERM36&#45;&gt;NON_TERM41 -->
<g id="edge66" class="edge">
<title>NON_TERM36&#45;&gt;NON_TERM41</title>
<path fill="none" stroke="black" d="M749.8,-582.22C772.46,-570.47 808.89,-551.57 834.5,-538.3"/>
<polygon fill="black" stroke="black" points="836.13,-541.39 843.4,-533.68 832.91,-535.18 836.13,-541.39"/>
</g>
<!-- NON_TERM38 -->
<g id="node62" class="node">
<title>NON_TERM38</title>
<ellipse fill="none" stroke="black" cx="747" cy="-450" rx="27" ry="18"/>
<text text-anchor="middle" x="747" y="-445.8" font-family="Times,serif" font-size="14.00">F&#39;</text>
</g>
<!-- NON_TERM37&#45;&gt;NON_TERM38 -->
<g id="edge61" class="edge">
<title>NON_TERM37&#45;&gt;NON_TERM38</title>
<path fill="none" stroke="black" d="M760.64,-504.05C758.61,-496.14 756.14,-486.54 753.86,-477.69"/>
<polygon fill="black" stroke="black" points="757.2,-476.6 751.32,-467.79 750.42,-478.35 757.2,-476.6"/>
</g>
<!-- NON_TERM40 -->
<g id="node65" class="node">
<title>NON_TERM40</title>
<ellipse fill="none" stroke="black" cx="819" cy="-450" rx="27" ry="18"/>
<text text-anchor="middle" x="819" y="-445.8" font-family="Times,serif" font-size="14.00">T&#39;</text>
</g>
<!-- NON_TERM37&#45;&gt;NON_TERM40 -->
<g id="edge64" class="edge">
<title>NON_TERM37&#45;&gt;NON_TERM40</title>
<path fill="none" stroke="black" d="M776.98,-505.46C783.98,-496.4 792.94,-484.79 800.79,-474.61"/>
<polygon fill="black" stroke="black" points="803.71,-476.55 807.05,-466.49 798.17,-472.27 803.71,-476.55"/>
</g>
<!-- NON_TERM39 -->
<g id="node63" class="node">
<title>NON_TERM39</title>
<ellipse fill="none" stroke="black" cx="747" cy="-378" rx="27" ry="18"/>
<text text-anchor="middle" x="747" y="-373.8" font-family="Times,serif" font-size="14.00">F</text>
</g>
<!-- NON_TERM38&#45;&gt;NON_TERM39 -->
<g id="edge62" class="edge">
<title>NON_TERM38&#45;&gt;NON_TERM39</title>
<path fill="none" stroke="black" d="M747,-431.7C747,-423.98 747,-414.71 747,-406.11"/>
<polygon fill="black" stroke="black" points="750.5,-406.1 747,-396.1 743.5,-406.1 750.5,-406.1"/>
</g>
<!-- TERM16 -->
<g id="node64" class="node">
<title>TERM16</title>
<ellipse fill="none" stroke="black" cx="747" cy="-306" rx="27" ry="18"/>
<text text-anchor="middle" x="747" y="-301.8" font-family="Times,serif" font-size="14.00">2</text>
</g>
<!-- NON_TERM39&#45;&gt;TERM16 -->
<g id="edge63" class="edge">
<title>NON_TERM39&#45;&gt;TERM16</title>
<path fill="none" stroke="black" d="M747,-359.7C747,-351.98 747,-342.71 747,-334.11"/>
<polygon fill="black" stroke="black" points="750.5,-334.1 747,-324.1 743.5,-334.1 750.5,-334.1"/>
</g>
<!-- EMPTY7 -->
<g id="node66" class="node">
<title>EMPTY7</title>
<ellipse fill="none" stroke="black" cx="819" cy="-378" rx="27" ry="18"/>
</g>
<!-- NON_TERM40&#45;&gt;EMPTY7 -->
<g id="edge65" class="edge">
<title>NON_TERM40&#45;&gt;EMPTY7</title>
<path fill="none" stroke="black" d="M819,-431.7C819,-423.98 819,-414.71 819,-406.11"/>
<polygon fill="black" stroke="black" points="822.5,-406.1 819,-396.1 815.5,-406.1 822.5,-406.1"/>
</g>
<!-- EMPTY8 -->
<g id="node68" class="node">
<title>EMPTY8</title>
<ellipse fill="none" stroke="black" cx="891" cy="-450" rx="27" ry="18"/>
</g>
<!-- NON_TERM41&#45;&gt;EMPTY8 -->
<g id="edge67" class="edge">
<title>NON_TERM41&#45;&gt;EMPTY8</title>
<path fill="none" stroke="black" d="M870.4,-504.41C873.51,-496.34 877.33,-486.43 880.83,-477.35"/>
<polygon fill="black" stroke="black" points="884.13,-478.55 884.46,-467.96 877.6,-476.03 884.13,-478.55"/>
</g>
<!-- EMPTY9 -->
<g id="node71" class="node">
<title>EMPTY9</title>
<ellipse fill="none" stroke="black" cx="603" cy="-666" rx="27" ry="18"/>
</g>
<!-- NON_TERM42&#45;&gt;EMPTY9 -->
<g id="edge70" class="edge">
<title>NON_TERM42&#45;&gt;EMPTY9</title>
<path fill="none" stroke="black" d="M575.35,-720.76C579.71,-712.28 585.15,-701.71 590.04,-692.2"/>
<polygon fill="black" stroke="black" points="593.23,-693.64 594.7,-683.15 587.01,-690.44 593.23,-693.64"/>
</g>
<!-- EMPTY10 -->
<g id="node73" class="node">
<title>EMPTY10</title>
<ellipse fill="none" stroke="black" cx="495" cy="-810" rx="27" ry="18"/>
</g>
<!-- NON_TERM43&#45;&gt;EMPTY10 -->
<g id="edge72" class="edge">
<title>NON_TERM43&#45;&gt;EMPTY10</title>
<path fill="none" stroke="black" d="M495,-863.7C495,-855.98 495,-846.71 495,-838.11"/>
<polygon fill="black" stroke="black" points="498.5,-838.1 495,-828.1 491.5,-838.1 498.5,-838.1"/>
</g>
</g>
</svg>
